<svg width="894" height="240" viewBox="0 0 894 240" fill="none" xmlns="http://www.w3.org/2000/svg">
<rect x="654" width="240" height="240" fill="url(#paint0_radial)"/>
<g filter="url(#filter0_f)">
<path d="M787.7 80L764.8 116.3L775 152H756L748.5 125.6H740.6L735.9 152H717.9L730.6 80H748.6L743.3 110H749.7L768.7 80H787.7ZM832.325 114.1C832.325 116.367 831.925 118.567 831.125 120.7C830.392 122.833 829.658 124.4 828.925 125.4L827.825 126.8H812.725C814.392 125.267 815.225 123.367 815.225 121.1C815.225 119.9 814.825 118.933 814.025 118.2C813.292 117.4 812.258 117 810.925 117C808.658 117 806.692 118.133 805.025 120.4L799.425 152H782.425L790.925 103.9H806.725L805.525 110.6C809.325 105.2 813.925 102.5 819.325 102.5C823.658 102.5 826.892 103.533 829.025 105.6C831.225 107.667 832.325 110.5 832.325 114.1Z" fill="#E2EDED" fill-opacity="0.59"/>
</g>
<path d="M787.7 80L764.8 116.3L775 152H756L748.5 125.6H740.6L735.9 152H717.9L730.6 80H748.6L743.3 110H749.7L768.7 80H787.7ZM832.325 114.1C832.325 116.367 831.925 118.567 831.125 120.7C830.392 122.833 829.658 124.4 828.925 125.4L827.825 126.8H812.725C814.392 125.267 815.225 123.367 815.225 121.1C815.225 119.9 814.825 118.933 814.025 118.2C813.292 117.4 812.258 117 810.925 117C808.658 117 806.692 118.133 805.025 120.4L799.425 152H782.425L790.925 103.9H806.725L805.525 110.6C809.325 105.2 813.925 102.5 819.325 102.5C823.658 102.5 826.892 103.533 829.025 105.6C831.225 107.667 832.325 110.5 832.325 114.1Z" fill="white"/>
<path d="M673.544 212.08H675.128L677.528 218.128L679.952 212.08H681.56L678.584 219.352L681.848 227.056L688.016 211.96H689.84L682.616 229H681.128L677.552 220.576L673.952 229H672.488L665.288 211.96H667.088L673.28 227.056L676.52 219.352L673.544 212.08ZM695.755 229.24C694.843 229.24 694.003 229.072 693.235 228.736C692.483 228.384 691.827 227.912 691.267 227.32C690.707 226.712 690.267 226.016 689.947 225.232C689.643 224.448 689.491 223.608 689.491 222.712C689.491 221.832 689.643 221.008 689.947 220.24C690.267 219.456 690.699 218.776 691.243 218.2C691.803 217.608 692.467 217.144 693.235 216.808C694.003 216.456 694.835 216.28 695.731 216.28C696.643 216.28 697.475 216.456 698.227 216.808C698.995 217.144 699.651 217.608 700.195 218.2C700.739 218.792 701.163 219.472 701.467 220.24C701.771 221.008 701.923 221.824 701.923 222.688C701.923 222.816 701.923 222.944 701.923 223.072C701.923 223.2 701.915 223.288 701.899 223.336H691.195C691.243 224.008 691.395 224.632 691.651 225.208C691.923 225.768 692.267 226.256 692.683 226.672C693.099 227.088 693.571 227.416 694.099 227.656C694.643 227.88 695.219 227.992 695.827 227.992C696.227 227.992 696.627 227.936 697.027 227.824C697.427 227.712 697.795 227.56 698.131 227.368C698.467 227.176 698.771 226.944 699.043 226.672C699.315 226.384 699.523 226.072 699.667 225.736L701.083 226.12C700.891 226.584 700.619 227.008 700.267 227.392C699.915 227.76 699.507 228.088 699.043 228.376C698.579 228.648 698.067 228.856 697.507 229C696.947 229.16 696.363 229.24 695.755 229.24ZM700.363 222.088C700.315 221.416 700.155 220.808 699.883 220.264C699.627 219.704 699.291 219.224 698.875 218.824C698.475 218.424 698.003 218.112 697.459 217.888C696.931 217.664 696.363 217.552 695.755 217.552C695.147 217.552 694.571 217.664 694.027 217.888C693.483 218.112 693.003 218.424 692.587 218.824C692.187 219.224 691.859 219.704 691.603 220.264C691.363 220.824 691.219 221.432 691.171 222.088H700.363ZM710.561 229.24C709.569 229.24 708.657 228.992 707.825 228.496C707.009 228 706.369 227.36 705.905 226.576V229H704.441V211.48H706.073V219.112C706.633 218.264 707.305 217.584 708.089 217.072C708.873 216.544 709.785 216.28 710.825 216.28C711.705 216.28 712.489 216.464 713.177 216.832C713.881 217.2 714.473 217.696 714.953 218.32C715.449 218.928 715.825 219.624 716.081 220.408C716.353 221.176 716.489 221.968 716.489 222.784C716.489 223.664 716.337 224.496 716.033 225.28C715.729 226.064 715.313 226.752 714.785 227.344C714.257 227.92 713.625 228.384 712.889 228.736C712.169 229.072 711.393 229.24 710.561 229.24ZM710.177 227.8C710.865 227.8 711.489 227.664 712.049 227.392C712.625 227.104 713.113 226.728 713.513 226.264C713.929 225.784 714.249 225.248 714.473 224.656C714.713 224.048 714.833 223.424 714.833 222.784C714.833 222.128 714.721 221.496 714.497 220.888C714.289 220.28 713.985 219.744 713.585 219.28C713.201 218.8 712.729 218.424 712.169 218.152C711.625 217.864 711.025 217.72 710.369 217.72C709.873 217.72 709.409 217.808 708.977 217.984C708.545 218.144 708.145 218.368 707.777 218.656C707.409 218.944 707.081 219.28 706.793 219.664C706.505 220.032 706.265 220.424 706.073 220.84V224.728C706.137 225.16 706.305 225.568 706.577 225.952C706.865 226.32 707.201 226.64 707.585 226.912C707.985 227.184 708.409 227.4 708.857 227.56C709.321 227.72 709.761 227.8 710.177 227.8Z" fill="white"/>
<path d="M116.386 91.012H87.6037L76.0207 157H54.8437L66.4267 91.012H37.5277L40.8037 72.76H119.662L116.386 91.012ZM135.368 99.085C143.792 99.085 150.149 100.918 154.439 104.584C157.793 107.47 159.47 111.487 159.47 116.635C159.47 118.351 159.275 120.223 158.885 122.251L156.428 135.94C154.946 144.208 151.475 150.058 146.015 153.49C140.633 156.922 133.418 158.638 124.37 158.638C115.322 158.638 108.692 156.922 104.48 153.49C101.36 150.916 99.8 147.055 99.8 141.907C99.8 140.113 99.995 138.124 100.385 135.94L102.842 122.251C105.572 106.807 116.414 99.085 135.368 99.085ZM138.527 124.591C138.683 123.811 138.761 122.836 138.761 121.666C138.761 120.418 138.254 119.053 137.24 117.571C136.226 116.089 134.432 115.348 131.858 115.348C129.362 115.348 127.256 116.206 125.54 117.922C123.824 119.56 122.732 121.783 122.264 124.591L120.743 133.366C120.587 134.146 120.509 135.16 120.509 136.408C120.509 137.578 121.016 138.865 122.03 140.269C123.044 141.673 124.799 142.375 127.295 142.375C129.869 142.375 132.014 141.517 133.73 139.801C135.446 138.007 136.538 135.862 137.006 133.366L138.527 124.591ZM203.632 132.547H168.649L171.223 117.805H206.206L203.632 132.547ZM269.516 138.982C269.516 141.01 270.53 142.024 272.558 142.024C274.664 142.024 276.419 141.634 277.823 140.854L277.238 154.075C273.494 157.117 269.282 158.638 264.602 158.638C256.022 158.638 251.264 155.518 250.328 149.278C246.428 155.518 240.695 158.638 233.129 158.638C220.337 158.638 213.941 153.139 213.941 142.141C213.941 140.269 214.136 138.202 214.526 135.94L216.983 122.251C218.231 115.231 221.078 109.654 225.524 105.52C230.048 101.308 236.288 99.202 244.244 99.202C249.158 99.202 253.058 100.255 255.944 102.361L261.911 68.197H281.918L269.633 137.578C269.555 138.046 269.516 138.514 269.516 138.982ZM234.884 133.366C234.728 134.068 234.65 135.043 234.65 136.291C234.65 137.539 235.235 138.787 236.405 140.035C237.575 141.205 239.525 141.79 242.255 141.79C245.063 141.79 247.481 140.698 249.509 138.514L253.019 118.858C252.161 116.908 250.133 115.933 246.935 115.933C240.929 115.933 237.419 118.819 236.405 124.591L234.884 133.366ZM321.837 99.085C330.261 99.085 336.618 100.918 340.908 104.584C344.262 107.47 345.939 111.487 345.939 116.635C345.939 118.351 345.744 120.223 345.354 122.251L342.897 135.94C341.415 144.208 337.944 150.058 332.484 153.49C327.102 156.922 319.887 158.638 310.839 158.638C301.791 158.638 295.161 156.922 290.949 153.49C287.829 150.916 286.269 147.055 286.269 141.907C286.269 140.113 286.464 138.124 286.854 135.94L289.311 122.251C292.041 106.807 302.883 99.085 321.837 99.085ZM324.996 124.591C325.152 123.811 325.23 122.836 325.23 121.666C325.23 120.418 324.723 119.053 323.709 117.571C322.695 116.089 320.901 115.348 318.327 115.348C315.831 115.348 313.725 116.206 312.009 117.922C310.293 119.56 309.201 121.783 308.733 124.591L307.212 133.366C307.056 134.146 306.978 135.16 306.978 136.408C306.978 137.578 307.485 138.865 308.499 140.269C309.513 141.673 311.268 142.375 313.764 142.375C316.338 142.375 318.483 141.517 320.199 139.801C321.915 138.007 323.007 135.862 323.475 133.366L324.996 124.591ZM434.003 157H380.651L395.51 72.76H416.57L404.987 138.748H437.279L434.003 157ZM468.417 142.024C470.211 142.024 471.81 141.634 473.214 140.854L472.629 154.075C468.963 157.117 464.79 158.638 460.11 158.638C453.012 158.638 448.41 157 446.304 153.724C444.9 151.54 444.198 149.239 444.198 146.821C444.198 144.325 444.354 142.141 444.666 140.269L451.686 100.723H471.576L465.024 137.578C464.946 138.046 464.907 138.475 464.907 138.865C464.907 140.971 466.077 142.024 468.417 142.024ZM454.026 81.652C454.026 76.66 455.118 73.033 457.302 70.771C459.564 68.431 463.035 67.261 467.715 67.261C474.267 67.261 477.543 70.147 477.543 75.919C477.543 80.833 476.412 84.421 474.15 86.683C471.966 88.945 468.495 90.076 463.737 90.076C457.263 90.076 454.026 87.268 454.026 81.652ZM538.907 112.891C538.907 115.465 538.127 117.844 536.567 120.028H517.379C518.003 119.56 518.315 118.78 518.315 117.688C518.315 116.596 517.691 115.738 516.443 115.114C515.195 114.412 513.596 114.061 511.646 114.061C505.796 114.061 502.871 115.855 502.871 119.443C502.871 120.847 503.963 121.861 506.147 122.485C508.331 123.109 510.983 123.616 514.103 124.006C517.223 124.396 520.343 124.981 523.463 125.761C526.583 126.463 529.235 127.906 531.419 130.09C533.603 132.274 534.695 135.199 534.695 138.865C534.695 145.339 532.082 150.253 526.856 153.607C521.708 156.961 514.181 158.638 504.275 158.638C494.369 158.638 487.427 157.039 483.449 153.841C480.329 151.345 478.769 147.913 478.769 143.545C478.769 142.297 478.886 141.01 479.12 139.684L498.659 139.45C498.503 140.542 499.127 141.517 500.531 142.375C502.013 143.155 504.158 143.545 506.966 143.545C509.774 143.545 511.802 143.272 513.05 142.726C514.298 142.102 514.922 140.971 514.922 139.333C514.922 138.241 513.83 137.5 511.646 137.11C509.462 136.642 506.771 136.252 503.573 135.94C500.453 135.628 497.294 135.121 494.096 134.419C490.976 133.717 488.324 132.235 486.14 129.973C483.956 127.711 482.864 124.747 482.864 121.081C482.864 113.983 485.594 108.523 491.054 104.701C496.592 100.879 504.548 98.968 514.922 98.968C530.912 98.968 538.907 103.609 538.907 112.891ZM569.657 158.638C560.609 158.638 554.096 156.61 550.118 152.554C547.154 149.59 545.672 145.612 545.672 140.62C545.672 138.982 545.828 137.227 546.14 135.355L554.096 90.076L575.507 81.184L572.114 100.723H604.406L601.481 117.22H569.189L566.849 130.441C566.537 131.923 566.381 133.249 566.381 134.419C566.381 139.333 568.721 141.79 573.401 141.79C575.897 141.79 577.964 140.737 579.602 138.631C581.318 136.525 582.488 133.717 583.112 130.207H602.534C599.258 149.161 588.299 158.638 569.657 158.638Z" fill="#EDBC3F"/>
<defs>
<filter id="filter0_f" x="712.9" y="75" width="124.425" height="82" filterUnits="userSpaceOnUse" color-interpolation-filters="sRGB">
<feFlood flood-opacity="0" result="BackgroundImageFix"/>
<feBlend mode="normal" in="SourceGraphic" in2="BackgroundImageFix" result="shape"/>
<feGaussianBlur stdDeviation="2.5" result="effect1_foregroundBlur"/>
</filter>
<radialGradient id="paint0_radial" cx="0" cy="0" r="1" gradientUnits="userSpaceOnUse" gradientTransform="translate(774 120) rotate(91.741) scale(164.576 167.518)">
<stop stop-color="#FFD232"/>
<stop offset="0.0001" stop-color="#FFE600"/>
<stop offset="1" stop-color="#EEAB00"/>
</radialGradient>
</defs>
</svg>
