<svg width="1268" height="240" viewBox="0 0 1268 240" fill="none" xmlns="http://www.w3.org/2000/svg">
<rect x="1028" width="240" height="240" fill="url(#paint0_radial)"/>
<g filter="url(#filter0_f)">
<path d="M1161.7 80L1138.8 116.3L1149 152H1130L1122.5 125.6H1114.6L1109.9 152H1091.9L1104.6 80H1122.6L1117.3 110H1123.7L1142.7 80H1161.7ZM1206.33 114.1C1206.33 116.367 1205.93 118.567 1205.13 120.7C1204.39 122.833 1203.66 124.4 1202.93 125.4L1201.83 126.8H1186.73C1188.39 125.267 1189.23 123.367 1189.23 121.1C1189.23 119.9 1188.83 118.933 1188.03 118.2C1187.29 117.4 1186.26 117 1184.93 117C1182.66 117 1180.69 118.133 1179.03 120.4L1173.43 152H1156.43L1164.93 103.9H1180.73L1179.53 110.6C1183.33 105.2 1187.93 102.5 1193.33 102.5C1197.66 102.5 1200.89 103.533 1203.03 105.6C1205.23 107.667 1206.33 110.5 1206.33 114.1Z" fill="#E2EDED" fill-opacity="0.59"/>
</g>
<path d="M1161.7 80L1138.8 116.3L1149 152H1130L1122.5 125.6H1114.6L1109.9 152H1091.9L1104.6 80H1122.6L1117.3 110H1123.7L1142.7 80H1161.7ZM1206.33 114.1C1206.33 116.367 1205.93 118.567 1205.13 120.7C1204.39 122.833 1203.66 124.4 1202.93 125.4L1201.83 126.8H1186.73C1188.39 125.267 1189.23 123.367 1189.23 121.1C1189.23 119.9 1188.83 118.933 1188.03 118.2C1187.29 117.4 1186.26 117 1184.93 117C1182.66 117 1180.69 118.133 1179.03 120.4L1173.43 152H1156.43L1164.93 103.9H1180.73L1179.53 110.6C1183.33 105.2 1187.93 102.5 1193.33 102.5C1197.66 102.5 1200.89 103.533 1203.03 105.6C1205.23 107.667 1206.33 110.5 1206.33 114.1Z" fill="white"/>
<path d="M1047.54 212.08H1049.13L1051.53 218.128L1053.95 212.08H1055.56L1052.58 219.352L1055.85 227.056L1062.02 211.96H1063.84L1056.62 229H1055.13L1051.55 220.576L1047.95 229H1046.49L1039.29 211.96H1041.09L1047.28 227.056L1050.52 219.352L1047.54 212.08ZM1069.75 229.24C1068.84 229.24 1068 229.072 1067.23 228.736C1066.48 228.384 1065.83 227.912 1065.27 227.32C1064.71 226.712 1064.27 226.016 1063.95 225.232C1063.64 224.448 1063.49 223.608 1063.49 222.712C1063.49 221.832 1063.64 221.008 1063.95 220.24C1064.27 219.456 1064.7 218.776 1065.24 218.2C1065.8 217.608 1066.47 217.144 1067.23 216.808C1068 216.456 1068.83 216.28 1069.73 216.28C1070.64 216.28 1071.47 216.456 1072.23 216.808C1072.99 217.144 1073.65 217.608 1074.19 218.2C1074.74 218.792 1075.16 219.472 1075.47 220.24C1075.77 221.008 1075.92 221.824 1075.92 222.688C1075.92 222.816 1075.92 222.944 1075.92 223.072C1075.92 223.2 1075.91 223.288 1075.9 223.336H1065.19C1065.24 224.008 1065.39 224.632 1065.65 225.208C1065.92 225.768 1066.27 226.256 1066.68 226.672C1067.1 227.088 1067.57 227.416 1068.1 227.656C1068.64 227.88 1069.22 227.992 1069.83 227.992C1070.23 227.992 1070.63 227.936 1071.03 227.824C1071.43 227.712 1071.79 227.56 1072.13 227.368C1072.47 227.176 1072.77 226.944 1073.04 226.672C1073.31 226.384 1073.52 226.072 1073.67 225.736L1075.08 226.12C1074.89 226.584 1074.62 227.008 1074.27 227.392C1073.91 227.76 1073.51 228.088 1073.04 228.376C1072.58 228.648 1072.07 228.856 1071.51 229C1070.95 229.16 1070.36 229.24 1069.75 229.24ZM1074.36 222.088C1074.31 221.416 1074.15 220.808 1073.88 220.264C1073.63 219.704 1073.29 219.224 1072.87 218.824C1072.47 218.424 1072 218.112 1071.46 217.888C1070.93 217.664 1070.36 217.552 1069.75 217.552C1069.15 217.552 1068.57 217.664 1068.03 217.888C1067.48 218.112 1067 218.424 1066.59 218.824C1066.19 219.224 1065.86 219.704 1065.6 220.264C1065.36 220.824 1065.22 221.432 1065.17 222.088H1074.36ZM1084.56 229.24C1083.57 229.24 1082.66 228.992 1081.82 228.496C1081.01 228 1080.37 227.36 1079.9 226.576V229H1078.44V211.48H1080.07V219.112C1080.63 218.264 1081.3 217.584 1082.09 217.072C1082.87 216.544 1083.78 216.28 1084.82 216.28C1085.7 216.28 1086.49 216.464 1087.18 216.832C1087.88 217.2 1088.47 217.696 1088.95 218.32C1089.45 218.928 1089.82 219.624 1090.08 220.408C1090.35 221.176 1090.49 221.968 1090.49 222.784C1090.49 223.664 1090.34 224.496 1090.03 225.28C1089.73 226.064 1089.31 226.752 1088.78 227.344C1088.26 227.92 1087.62 228.384 1086.89 228.736C1086.17 229.072 1085.39 229.24 1084.56 229.24ZM1084.18 227.8C1084.86 227.8 1085.49 227.664 1086.05 227.392C1086.62 227.104 1087.11 226.728 1087.51 226.264C1087.93 225.784 1088.25 225.248 1088.47 224.656C1088.71 224.048 1088.83 223.424 1088.83 222.784C1088.83 222.128 1088.72 221.496 1088.5 220.888C1088.29 220.28 1087.98 219.744 1087.58 219.28C1087.2 218.8 1086.73 218.424 1086.17 218.152C1085.62 217.864 1085.02 217.72 1084.37 217.72C1083.87 217.72 1083.41 217.808 1082.98 217.984C1082.54 218.144 1082.14 218.368 1081.78 218.656C1081.41 218.944 1081.08 219.28 1080.79 219.664C1080.5 220.032 1080.26 220.424 1080.07 220.84V224.728C1080.14 225.16 1080.3 225.568 1080.58 225.952C1080.86 226.32 1081.2 226.64 1081.58 226.912C1081.98 227.184 1082.41 227.4 1082.86 227.56C1083.32 227.72 1083.76 227.8 1084.18 227.8Z" fill="white"/>
<path d="M159.237 91.012H130.455L118.872 157H97.6953L109.278 91.012H80.3793L83.6553 72.76H162.513L159.237 91.012ZM178.22 99.085C186.644 99.085 193.001 100.918 197.291 104.584C200.645 107.47 202.322 111.487 202.322 116.635C202.322 118.351 202.127 120.223 201.737 122.251L199.28 135.94C197.798 144.208 194.327 150.058 188.867 153.49C183.485 156.922 176.27 158.638 167.222 158.638C158.174 158.638 151.544 156.922 147.332 153.49C144.212 150.916 142.652 147.055 142.652 141.907C142.652 140.113 142.847 138.124 143.237 135.94L145.694 122.251C148.424 106.807 159.266 99.085 178.22 99.085ZM181.379 124.591C181.535 123.811 181.613 122.836 181.613 121.666C181.613 120.418 181.106 119.053 180.092 117.571C179.078 116.089 177.284 115.348 174.71 115.348C172.214 115.348 170.108 116.206 168.392 117.922C166.676 119.56 165.584 121.783 165.116 124.591L163.595 133.366C163.439 134.146 163.361 135.16 163.361 136.408C163.361 137.578 163.868 138.865 164.882 140.269C165.896 141.673 167.651 142.375 170.147 142.375C172.721 142.375 174.866 141.517 176.582 139.801C178.298 138.007 179.39 135.862 179.858 133.366L181.379 124.591ZM246.484 132.547H211.501L214.075 117.805H249.058L246.484 132.547ZM312.367 138.982C312.367 141.01 313.381 142.024 315.409 142.024C317.515 142.024 319.27 141.634 320.674 140.854L320.089 154.075C316.345 157.117 312.133 158.638 307.453 158.638C298.873 158.638 294.115 155.518 293.179 149.278C289.279 155.518 283.546 158.638 275.98 158.638C263.188 158.638 256.792 153.139 256.792 142.141C256.792 140.269 256.987 138.202 257.377 135.94L259.834 122.251C261.082 115.231 263.929 109.654 268.375 105.52C272.899 101.308 279.139 99.202 287.095 99.202C292.009 99.202 295.909 100.255 298.795 102.361L304.762 68.197H324.769L312.484 137.578C312.406 138.046 312.367 138.514 312.367 138.982ZM277.735 133.366C277.579 134.068 277.501 135.043 277.501 136.291C277.501 137.539 278.086 138.787 279.256 140.035C280.426 141.205 282.376 141.79 285.106 141.79C287.914 141.79 290.332 140.698 292.36 138.514L295.87 118.858C295.012 116.908 292.984 115.933 289.786 115.933C283.78 115.933 280.27 118.819 279.256 124.591L277.735 133.366ZM364.688 99.085C373.112 99.085 379.469 100.918 383.759 104.584C387.113 107.47 388.79 111.487 388.79 116.635C388.79 118.351 388.595 120.223 388.205 122.251L385.748 135.94C384.266 144.208 380.795 150.058 375.335 153.49C369.953 156.922 362.738 158.638 353.69 158.638C344.642 158.638 338.012 156.922 333.8 153.49C330.68 150.916 329.12 147.055 329.12 141.907C329.12 140.113 329.315 138.124 329.705 135.94L332.162 122.251C334.892 106.807 345.734 99.085 364.688 99.085ZM367.847 124.591C368.003 123.811 368.081 122.836 368.081 121.666C368.081 120.418 367.574 119.053 366.56 117.571C365.546 116.089 363.752 115.348 361.178 115.348C358.682 115.348 356.576 116.206 354.86 117.922C353.144 119.56 352.052 121.783 351.584 124.591L350.063 133.366C349.907 134.146 349.829 135.16 349.829 136.408C349.829 137.578 350.336 138.865 351.35 140.269C352.364 141.673 354.119 142.375 356.615 142.375C359.189 142.375 361.334 141.517 363.05 139.801C364.766 138.007 365.858 135.862 366.326 133.366L367.847 124.591ZM476.855 157H423.503L438.362 72.76H459.422L447.839 138.748H480.131L476.855 157ZM511.268 142.024C513.062 142.024 514.661 141.634 516.065 140.854L515.48 154.075C511.814 157.117 507.641 158.638 502.961 158.638C495.863 158.638 491.261 157 489.155 153.724C487.751 151.54 487.049 149.239 487.049 146.821C487.049 144.325 487.205 142.141 487.517 140.269L494.537 100.723H514.427L507.875 137.578C507.797 138.046 507.758 138.475 507.758 138.865C507.758 140.971 508.928 142.024 511.268 142.024ZM496.877 81.652C496.877 76.66 497.969 73.033 500.153 70.771C502.415 68.431 505.886 67.261 510.566 67.261C517.118 67.261 520.394 70.147 520.394 75.919C520.394 80.833 519.263 84.421 517.001 86.683C514.817 88.945 511.346 90.076 506.588 90.076C500.114 90.076 496.877 87.268 496.877 81.652ZM581.758 112.891C581.758 115.465 580.978 117.844 579.418 120.028H560.23C560.854 119.56 561.166 118.78 561.166 117.688C561.166 116.596 560.542 115.738 559.294 115.114C558.046 114.412 556.447 114.061 554.497 114.061C548.647 114.061 545.722 115.855 545.722 119.443C545.722 120.847 546.814 121.861 548.998 122.485C551.182 123.109 553.834 123.616 556.954 124.006C560.074 124.396 563.194 124.981 566.314 125.761C569.434 126.463 572.086 127.906 574.27 130.09C576.454 132.274 577.546 135.199 577.546 138.865C577.546 145.339 574.933 150.253 569.707 153.607C564.559 156.961 557.032 158.638 547.126 158.638C537.22 158.638 530.278 157.039 526.3 153.841C523.18 151.345 521.62 147.913 521.62 143.545C521.62 142.297 521.737 141.01 521.971 139.684L541.51 139.45C541.354 140.542 541.978 141.517 543.382 142.375C544.864 143.155 547.009 143.545 549.817 143.545C552.625 143.545 554.653 143.272 555.901 142.726C557.149 142.102 557.773 140.971 557.773 139.333C557.773 138.241 556.681 137.5 554.497 137.11C552.313 136.642 549.622 136.252 546.424 135.94C543.304 135.628 540.145 135.121 536.947 134.419C533.827 133.717 531.175 132.235 528.991 129.973C526.807 127.711 525.715 124.747 525.715 121.081C525.715 113.983 528.445 108.523 533.905 104.701C539.443 100.879 547.399 98.968 557.773 98.968C573.763 98.968 581.758 103.609 581.758 112.891ZM612.509 158.638C603.461 158.638 596.948 156.61 592.97 152.554C590.006 149.59 588.524 145.612 588.524 140.62C588.524 138.982 588.68 137.227 588.992 135.355L596.948 90.076L618.359 81.184L614.966 100.723H647.258L644.333 117.22H612.041L609.701 130.441C609.389 131.923 609.233 133.249 609.233 134.419C609.233 139.333 611.573 141.79 616.253 141.79C618.749 141.79 620.816 140.737 622.454 138.631C624.17 136.525 625.34 133.717 625.964 130.207H645.386C642.11 149.161 631.151 158.638 612.509 158.638ZM775.38 100.723C776.472 103.999 777.018 108.367 777.018 113.827C777.018 119.209 776.355 124.396 775.029 129.388C773.703 134.38 771.675 139.138 768.945 143.662C766.293 148.108 762.549 151.735 757.713 154.543C752.955 157.273 747.456 158.638 741.216 158.638C731.856 158.638 725.616 156.025 722.496 150.799C716.88 156.025 710.601 158.638 703.659 158.638C694.299 158.638 687.864 156.649 684.354 152.671C682.014 150.019 680.844 146.08 680.844 140.854C680.844 138.124 681.156 135.082 681.78 131.728L687.279 100.723H707.169L701.67 131.845C701.436 133.015 701.319 134.068 701.319 135.004C701.319 139.45 703.62 141.673 708.222 141.673C711.42 141.673 713.838 140.308 715.476 137.578C717.114 134.77 718.518 129.895 719.688 122.953L723.666 100.723H743.556L738.057 131.845C737.823 133.015 737.706 134.068 737.706 135.004C737.706 139.45 740.007 141.673 744.609 141.673C752.721 141.673 756.777 133.171 756.777 116.167C756.777 112.189 756.465 107.782 755.841 102.946L755.49 100.723H775.38ZM808.339 142.024C810.133 142.024 811.732 141.634 813.136 140.854L812.551 154.075C808.885 157.117 804.712 158.638 800.032 158.638C792.934 158.638 788.332 157 786.226 153.724C784.822 151.54 784.12 149.239 784.12 146.821C784.12 144.325 784.276 142.141 784.588 140.269L791.608 100.723H811.498L804.946 137.578C804.868 138.046 804.829 138.475 804.829 138.865C804.829 140.971 805.999 142.024 808.339 142.024ZM793.948 81.652C793.948 76.66 795.04 73.033 797.224 70.771C799.486 68.431 802.957 67.261 807.637 67.261C814.189 67.261 817.465 70.147 817.465 75.919C817.465 80.833 816.334 84.421 814.072 86.683C811.888 88.945 808.417 90.076 803.659 90.076C797.185 90.076 793.948 87.268 793.948 81.652ZM845.366 158.638C836.318 158.638 829.805 156.61 825.827 152.554C822.863 149.59 821.381 145.612 821.381 140.62C821.381 138.982 821.537 137.227 821.849 135.355L829.805 90.076L851.216 81.184L847.823 100.723H880.115L877.19 117.22H844.898L842.558 130.441C842.246 131.923 842.09 133.249 842.09 134.419C842.09 139.333 844.43 141.79 849.11 141.79C851.606 141.79 853.673 140.737 855.311 138.631C857.027 136.525 858.197 133.717 858.821 130.207H878.243C874.967 149.161 864.008 158.638 845.366 158.638ZM945.264 142.024C947.058 142.024 948.657 141.634 950.061 140.854L949.476 154.075C945.81 157.117 941.637 158.638 936.957 158.638C926.349 158.638 921.045 154.192 921.045 145.3C921.045 143.74 921.201 142.063 921.513 140.269L924.087 125.878C924.321 124.474 924.438 123.07 924.438 121.666C924.438 117.922 922.449 116.05 918.471 116.05C914.571 116.05 911.529 117.376 909.345 120.028L902.793 157H882.903L898.581 68.197H918.471L911.802 105.988C916.092 101.386 921.474 99.085 927.948 99.085C935.826 99.085 940.935 100.84 943.275 104.35C944.913 106.69 945.732 109.303 945.732 112.189C945.732 115.075 945.498 117.727 945.03 120.145L941.871 137.578C941.793 138.046 941.754 138.475 941.754 138.865C941.754 140.971 942.924 142.024 945.264 142.024Z" fill="#EDBC3F"/>
<defs>
<filter id="filter0_f" x="1086.9" y="75" width="124.425" height="82" filterUnits="userSpaceOnUse" color-interpolation-filters="sRGB">
<feFlood flood-opacity="0" result="BackgroundImageFix"/>
<feBlend mode="normal" in="SourceGraphic" in2="BackgroundImageFix" result="shape"/>
<feGaussianBlur stdDeviation="2.5" result="effect1_foregroundBlur"/>
</filter>
<radialGradient id="paint0_radial" cx="0" cy="0" r="1" gradientUnits="userSpaceOnUse" gradientTransform="translate(1148 120) rotate(91.741) scale(164.576 167.518)">
<stop stop-color="#FFD232"/>
<stop offset="0.0001" stop-color="#FFE600"/>
<stop offset="1" stop-color="#EEAB00"/>
</radialGradient>
</defs>
</svg>
