<svg width="1531" height="240" viewBox="0 0 1531 240" fill="none" xmlns="http://www.w3.org/2000/svg">
<rect x="1291" width="240" height="240" fill="url(#paint0_radial)"/>
<g filter="url(#filter0_f)">
<path d="M1424.7 80L1401.8 116.3L1412 152H1393L1385.5 125.6H1377.6L1372.9 152H1354.9L1367.6 80H1385.6L1380.3 110H1386.7L1405.7 80H1424.7ZM1469.33 114.1C1469.33 116.367 1468.93 118.567 1468.13 120.7C1467.39 122.833 1466.66 124.4 1465.93 125.4L1464.83 126.8H1449.73C1451.39 125.267 1452.23 123.367 1452.23 121.1C1452.23 119.9 1451.83 118.933 1451.03 118.2C1450.29 117.4 1449.26 117 1447.93 117C1445.66 117 1443.69 118.133 1442.03 120.4L1436.43 152H1419.43L1427.93 103.9H1443.73L1442.53 110.6C1446.33 105.2 1450.93 102.5 1456.33 102.5C1460.66 102.5 1463.89 103.533 1466.03 105.6C1468.23 107.667 1469.33 110.5 1469.33 114.1Z" fill="#E2EDED" fill-opacity="0.59"/>
</g>
<path d="M1424.7 80L1401.8 116.3L1412 152H1393L1385.5 125.6H1377.6L1372.9 152H1354.9L1367.6 80H1385.6L1380.3 110H1386.7L1405.7 80H1424.7ZM1469.33 114.1C1469.33 116.367 1468.93 118.567 1468.13 120.7C1467.39 122.833 1466.66 124.4 1465.93 125.4L1464.83 126.8H1449.73C1451.39 125.267 1452.23 123.367 1452.23 121.1C1452.23 119.9 1451.83 118.933 1451.03 118.2C1450.29 117.4 1449.26 117 1447.93 117C1445.66 117 1443.69 118.133 1442.03 120.4L1436.43 152H1419.43L1427.93 103.9H1443.73L1442.53 110.6C1446.33 105.2 1450.93 102.5 1456.33 102.5C1460.66 102.5 1463.89 103.533 1466.03 105.6C1468.23 107.667 1469.33 110.5 1469.33 114.1Z" fill="white"/>
<path d="M1310.54 212.08H1312.13L1314.53 218.128L1316.95 212.08H1318.56L1315.58 219.352L1318.85 227.056L1325.02 211.96H1326.84L1319.62 229H1318.13L1314.55 220.576L1310.95 229H1309.49L1302.29 211.96H1304.09L1310.28 227.056L1313.52 219.352L1310.54 212.08ZM1332.75 229.24C1331.84 229.24 1331 229.072 1330.23 228.736C1329.48 228.384 1328.83 227.912 1328.27 227.32C1327.71 226.712 1327.27 226.016 1326.95 225.232C1326.64 224.448 1326.49 223.608 1326.49 222.712C1326.49 221.832 1326.64 221.008 1326.95 220.24C1327.27 219.456 1327.7 218.776 1328.24 218.2C1328.8 217.608 1329.47 217.144 1330.23 216.808C1331 216.456 1331.83 216.28 1332.73 216.28C1333.64 216.28 1334.47 216.456 1335.23 216.808C1335.99 217.144 1336.65 217.608 1337.19 218.2C1337.74 218.792 1338.16 219.472 1338.47 220.24C1338.77 221.008 1338.92 221.824 1338.92 222.688C1338.92 222.816 1338.92 222.944 1338.92 223.072C1338.92 223.2 1338.91 223.288 1338.9 223.336H1328.19C1328.24 224.008 1328.39 224.632 1328.65 225.208C1328.92 225.768 1329.27 226.256 1329.68 226.672C1330.1 227.088 1330.57 227.416 1331.1 227.656C1331.64 227.88 1332.22 227.992 1332.83 227.992C1333.23 227.992 1333.63 227.936 1334.03 227.824C1334.43 227.712 1334.79 227.56 1335.13 227.368C1335.47 227.176 1335.77 226.944 1336.04 226.672C1336.31 226.384 1336.52 226.072 1336.67 225.736L1338.08 226.12C1337.89 226.584 1337.62 227.008 1337.27 227.392C1336.91 227.76 1336.51 228.088 1336.04 228.376C1335.58 228.648 1335.07 228.856 1334.51 229C1333.95 229.16 1333.36 229.24 1332.75 229.24ZM1337.36 222.088C1337.31 221.416 1337.15 220.808 1336.88 220.264C1336.63 219.704 1336.29 219.224 1335.87 218.824C1335.47 218.424 1335 218.112 1334.46 217.888C1333.93 217.664 1333.36 217.552 1332.75 217.552C1332.15 217.552 1331.57 217.664 1331.03 217.888C1330.48 218.112 1330 218.424 1329.59 218.824C1329.19 219.224 1328.86 219.704 1328.6 220.264C1328.36 220.824 1328.22 221.432 1328.17 222.088H1337.36ZM1347.56 229.24C1346.57 229.24 1345.66 228.992 1344.82 228.496C1344.01 228 1343.37 227.36 1342.9 226.576V229H1341.44V211.48H1343.07V219.112C1343.63 218.264 1344.3 217.584 1345.09 217.072C1345.87 216.544 1346.78 216.28 1347.82 216.28C1348.7 216.28 1349.49 216.464 1350.18 216.832C1350.88 217.2 1351.47 217.696 1351.95 218.32C1352.45 218.928 1352.82 219.624 1353.08 220.408C1353.35 221.176 1353.49 221.968 1353.49 222.784C1353.49 223.664 1353.34 224.496 1353.03 225.28C1352.73 226.064 1352.31 226.752 1351.78 227.344C1351.26 227.92 1350.62 228.384 1349.89 228.736C1349.17 229.072 1348.39 229.24 1347.56 229.24ZM1347.18 227.8C1347.86 227.8 1348.49 227.664 1349.05 227.392C1349.62 227.104 1350.11 226.728 1350.51 226.264C1350.93 225.784 1351.25 225.248 1351.47 224.656C1351.71 224.048 1351.83 223.424 1351.83 222.784C1351.83 222.128 1351.72 221.496 1351.5 220.888C1351.29 220.28 1350.98 219.744 1350.58 219.28C1350.2 218.8 1349.73 218.424 1349.17 218.152C1348.62 217.864 1348.02 217.72 1347.37 217.72C1346.87 217.72 1346.41 217.808 1345.98 217.984C1345.54 218.144 1345.14 218.368 1344.78 218.656C1344.41 218.944 1344.08 219.28 1343.79 219.664C1343.5 220.032 1343.26 220.424 1343.07 220.84V224.728C1343.14 225.16 1343.3 225.568 1343.58 225.952C1343.86 226.32 1344.2 226.64 1344.58 226.912C1344.98 227.184 1345.41 227.4 1345.86 227.56C1346.32 227.72 1346.76 227.8 1347.18 227.8Z" fill="white"/>
<path d="M176.042 91.076H116.756L92.8969 227H49.2759L73.1349 91.076H13.6079L20.3559 53.48H182.79L176.042 91.076ZM215.142 107.705C232.494 107.705 245.589 111.481 254.425 119.032C261.334 124.977 264.788 133.251 264.788 143.855C264.788 147.39 264.387 151.246 263.583 155.423L258.522 183.62C255.47 200.651 248.32 212.701 237.073 219.77C225.987 226.839 211.126 230.374 192.488 230.374C173.851 230.374 160.194 226.839 151.518 219.77C145.092 214.468 141.878 206.515 141.878 195.911C141.878 192.216 142.28 188.119 143.083 183.62L148.144 155.423C153.768 123.611 176.1 107.705 215.142 107.705ZM221.649 160.243C221.971 158.636 222.131 156.628 222.131 154.218C222.131 151.647 221.087 148.836 218.998 145.783C216.91 142.73 213.214 141.204 207.912 141.204C202.771 141.204 198.433 142.971 194.898 146.506C191.364 149.88 189.114 154.459 188.15 160.243L185.017 178.318C184.696 179.925 184.535 182.013 184.535 184.584C184.535 186.994 185.58 189.645 187.668 192.537C189.757 195.429 193.372 196.875 198.513 196.875C203.815 196.875 208.234 195.108 211.768 191.573C215.303 187.878 217.552 183.459 218.516 178.318L221.649 160.243ZM355.754 176.631H283.695L288.997 146.265H361.056L355.754 176.631ZM491.464 189.886C491.464 194.063 493.552 196.152 497.73 196.152C502.068 196.152 505.683 195.349 508.575 193.742L507.37 220.975C499.658 227.241 490.982 230.374 481.342 230.374C463.668 230.374 453.868 223.947 451.94 211.094C443.906 223.947 432.097 230.374 416.513 230.374C390.163 230.374 376.989 219.047 376.989 196.393C376.989 192.537 377.39 188.279 378.194 183.62L383.255 155.423C385.825 140.963 391.69 129.475 400.848 120.96C410.166 112.284 423.02 107.946 439.408 107.946C449.53 107.946 457.563 110.115 463.508 114.453L475.799 44.081H517.01L491.705 186.994C491.544 187.958 491.464 188.922 491.464 189.886ZM420.128 178.318C419.806 179.764 419.646 181.772 419.646 184.343C419.646 186.914 420.851 189.484 423.261 192.055C425.671 194.465 429.687 195.67 435.311 195.67C441.095 195.67 446.075 193.421 450.253 188.922L457.483 148.434C455.715 144.417 451.538 142.409 444.951 142.409C432.579 142.409 425.349 148.354 423.261 160.243L420.128 178.318ZM599.236 107.705C616.588 107.705 629.682 111.481 638.519 119.032C645.428 124.977 648.882 133.251 648.882 143.855C648.882 147.39 648.48 151.246 647.677 155.423L642.616 183.62C639.563 200.651 632.414 212.701 621.167 219.77C610.081 226.839 595.219 230.374 576.582 230.374C557.945 230.374 544.288 226.839 535.612 219.77C529.185 214.468 525.972 206.515 525.972 195.911C525.972 192.216 526.374 188.119 527.177 183.62L532.238 155.423C537.861 123.611 560.194 107.705 599.236 107.705ZM605.743 160.243C606.064 158.636 606.225 156.628 606.225 154.218C606.225 151.647 605.181 148.836 603.092 145.783C601.003 142.73 597.308 141.204 592.006 141.204C586.865 141.204 582.527 142.971 578.992 146.506C575.457 149.88 573.208 154.459 572.244 160.243L569.111 178.318C568.79 179.925 568.629 182.013 568.629 184.584C568.629 186.994 569.673 189.645 571.762 192.537C573.851 195.429 577.466 196.875 582.607 196.875C587.909 196.875 592.327 195.108 595.862 191.573C599.397 187.878 601.646 183.459 602.61 178.318L605.743 160.243ZM830.28 227H720.384L750.991 53.48H794.371L770.512 189.404H837.028L830.28 227ZM901.166 196.152C904.861 196.152 908.155 195.349 911.047 193.742L909.842 220.975C902.29 227.241 893.695 230.374 884.055 230.374C869.434 230.374 859.955 227 855.617 220.252C852.725 215.753 851.279 211.014 851.279 206.033C851.279 200.892 851.6 196.393 852.243 192.537L866.703 111.079H907.673L894.177 186.994C894.016 187.958 893.936 188.842 893.936 189.645C893.936 193.983 896.346 196.152 901.166 196.152ZM871.523 71.796C871.523 61.5133 873.772 54.0423 878.271 49.383C882.93 44.563 890.08 42.153 899.72 42.153C913.216 42.153 919.964 48.0977 919.964 59.987C919.964 70.109 917.634 77.4997 912.975 82.159C908.476 86.8183 901.326 89.148 891.526 89.148C878.19 89.148 871.523 83.364 871.523 71.796ZM1046.36 136.143C1046.36 141.445 1044.76 146.345 1041.54 150.844H1002.02C1003.3 149.88 1003.95 148.273 1003.95 146.024C1003.95 143.775 1002.66 142.007 1000.09 140.722C997.52 139.276 994.226 138.553 990.21 138.553C978.16 138.553 972.135 142.248 972.135 149.639C972.135 152.531 974.384 154.62 978.883 155.905C983.381 157.19 988.844 158.235 995.271 159.038C1001.7 159.841 1008.12 161.046 1014.55 162.653C1020.98 164.099 1026.44 167.071 1030.94 171.57C1035.44 176.069 1037.69 182.094 1037.69 189.645C1037.69 202.98 1032.3 213.102 1021.54 220.011C1010.94 226.92 995.431 230.374 975.027 230.374C954.622 230.374 940.323 227.08 932.129 220.493C925.702 215.352 922.489 208.282 922.489 199.285C922.489 196.714 922.73 194.063 923.212 191.332L963.459 190.85C963.137 193.099 964.423 195.108 967.315 196.875C970.367 198.482 974.786 199.285 980.57 199.285C986.354 199.285 990.531 198.723 993.102 197.598C995.672 196.313 996.958 193.983 996.958 190.609C996.958 188.36 994.708 186.833 990.21 186.03C985.711 185.066 980.168 184.263 973.581 183.62C967.154 182.977 960.647 181.933 954.06 180.487C947.633 179.041 942.17 175.988 937.672 171.329C933.173 166.67 930.924 160.564 930.924 153.013C930.924 138.392 936.547 127.146 947.794 119.273C959.201 111.4 975.589 107.464 996.958 107.464C1029.89 107.464 1046.36 117.024 1046.36 136.143ZM1109.7 230.374C1091.07 230.374 1077.65 226.197 1069.46 217.842C1063.35 211.737 1060.3 203.543 1060.3 193.26C1060.3 189.886 1060.62 186.271 1061.26 182.415L1077.65 89.148L1121.75 70.832L1114.77 111.079H1181.28L1175.26 145.06H1108.74L1103.92 172.293C1103.28 175.346 1102.96 178.077 1102.96 180.487C1102.96 190.609 1107.78 195.67 1117.42 195.67C1122.56 195.67 1126.82 193.501 1130.19 189.163C1133.72 184.825 1136.13 179.041 1137.42 171.811H1177.43C1170.68 210.853 1148.1 230.374 1109.7 230.374Z" fill="#EDBC3F"/>
<defs>
<filter id="filter0_f" x="1349.9" y="75" width="124.425" height="82" filterUnits="userSpaceOnUse" color-interpolation-filters="sRGB">
<feFlood flood-opacity="0" result="BackgroundImageFix"/>
<feBlend mode="normal" in="SourceGraphic" in2="BackgroundImageFix" result="shape"/>
<feGaussianBlur stdDeviation="2.5" result="effect1_foregroundBlur"/>
</filter>
<radialGradient id="paint0_radial" cx="0" cy="0" r="1" gradientUnits="userSpaceOnUse" gradientTransform="translate(1411 120) rotate(91.741) scale(164.576 167.518)">
<stop stop-color="#FFD232"/>
<stop offset="0.0001" stop-color="#FFE600"/>
<stop offset="1" stop-color="#EEAB00"/>
</radialGradient>
</defs>
</svg>
