<svg width="1268" height="240" viewBox="0 0 1268 240" fill="none" xmlns="http://www.w3.org/2000/svg">
<rect x="1028" width="240" height="240" fill="url(#paint0_radial)"/>
<g filter="url(#filter0_f)">
<path d="M1161.7 80L1138.8 116.3L1149 152H1130L1122.5 125.6H1114.6L1109.9 152H1091.9L1104.6 80H1122.6L1117.3 110H1123.7L1142.7 80H1161.7ZM1206.33 114.1C1206.33 116.367 1205.93 118.567 1205.13 120.7C1204.39 122.833 1203.66 124.4 1202.93 125.4L1201.83 126.8H1186.73C1188.39 125.267 1189.23 123.367 1189.23 121.1C1189.23 119.9 1188.83 118.933 1188.03 118.2C1187.29 117.4 1186.26 117 1184.93 117C1182.66 117 1180.69 118.133 1179.03 120.4L1173.43 152H1156.43L1164.93 103.9H1180.73L1179.53 110.6C1183.33 105.2 1187.93 102.5 1193.33 102.5C1197.66 102.5 1200.89 103.533 1203.03 105.6C1205.23 107.667 1206.33 110.5 1206.33 114.1Z" fill="#E2EDED" fill-opacity="0.59"/>
</g>
<path d="M1161.7 80L1138.8 116.3L1149 152H1130L1122.5 125.6H1114.6L1109.9 152H1091.9L1104.6 80H1122.6L1117.3 110H1123.7L1142.7 80H1161.7ZM1206.33 114.1C1206.33 116.367 1205.93 118.567 1205.13 120.7C1204.39 122.833 1203.66 124.4 1202.93 125.4L1201.83 126.8H1186.73C1188.39 125.267 1189.23 123.367 1189.23 121.1C1189.23 119.9 1188.83 118.933 1188.03 118.2C1187.29 117.4 1186.26 117 1184.93 117C1182.66 117 1180.69 118.133 1179.03 120.4L1173.43 152H1156.43L1164.93 103.9H1180.73L1179.53 110.6C1183.33 105.2 1187.93 102.5 1193.33 102.5C1197.66 102.5 1200.89 103.533 1203.03 105.6C1205.23 107.667 1206.33 110.5 1206.33 114.1Z" fill="white"/>
<path d="M1047.54 212.08H1049.13L1051.53 218.128L1053.95 212.08H1055.56L1052.58 219.352L1055.85 227.056L1062.02 211.96H1063.84L1056.62 229H1055.13L1051.55 220.576L1047.95 229H1046.49L1039.29 211.96H1041.09L1047.28 227.056L1050.52 219.352L1047.54 212.08ZM1069.75 229.24C1068.84 229.24 1068 229.072 1067.23 228.736C1066.48 228.384 1065.83 227.912 1065.27 227.32C1064.71 226.712 1064.27 226.016 1063.95 225.232C1063.64 224.448 1063.49 223.608 1063.49 222.712C1063.49 221.832 1063.64 221.008 1063.95 220.24C1064.27 219.456 1064.7 218.776 1065.24 218.2C1065.8 217.608 1066.47 217.144 1067.23 216.808C1068 216.456 1068.83 216.28 1069.73 216.28C1070.64 216.28 1071.47 216.456 1072.23 216.808C1072.99 217.144 1073.65 217.608 1074.19 218.2C1074.74 218.792 1075.16 219.472 1075.47 220.24C1075.77 221.008 1075.92 221.824 1075.92 222.688C1075.92 222.816 1075.92 222.944 1075.92 223.072C1075.92 223.2 1075.91 223.288 1075.9 223.336H1065.19C1065.24 224.008 1065.39 224.632 1065.65 225.208C1065.92 225.768 1066.27 226.256 1066.68 226.672C1067.1 227.088 1067.57 227.416 1068.1 227.656C1068.64 227.88 1069.22 227.992 1069.83 227.992C1070.23 227.992 1070.63 227.936 1071.03 227.824C1071.43 227.712 1071.79 227.56 1072.13 227.368C1072.47 227.176 1072.77 226.944 1073.04 226.672C1073.31 226.384 1073.52 226.072 1073.67 225.736L1075.08 226.12C1074.89 226.584 1074.62 227.008 1074.27 227.392C1073.91 227.76 1073.51 228.088 1073.04 228.376C1072.58 228.648 1072.07 228.856 1071.51 229C1070.95 229.16 1070.36 229.24 1069.75 229.24ZM1074.36 222.088C1074.31 221.416 1074.15 220.808 1073.88 220.264C1073.63 219.704 1073.29 219.224 1072.87 218.824C1072.47 218.424 1072 218.112 1071.46 217.888C1070.93 217.664 1070.36 217.552 1069.75 217.552C1069.15 217.552 1068.57 217.664 1068.03 217.888C1067.48 218.112 1067 218.424 1066.59 218.824C1066.19 219.224 1065.86 219.704 1065.6 220.264C1065.36 220.824 1065.22 221.432 1065.17 222.088H1074.36ZM1084.56 229.24C1083.57 229.24 1082.66 228.992 1081.82 228.496C1081.01 228 1080.37 227.36 1079.9 226.576V229H1078.44V211.48H1080.07V219.112C1080.63 218.264 1081.3 217.584 1082.09 217.072C1082.87 216.544 1083.78 216.28 1084.82 216.28C1085.7 216.28 1086.49 216.464 1087.18 216.832C1087.88 217.2 1088.47 217.696 1088.95 218.32C1089.45 218.928 1089.82 219.624 1090.08 220.408C1090.35 221.176 1090.49 221.968 1090.49 222.784C1090.49 223.664 1090.34 224.496 1090.03 225.28C1089.73 226.064 1089.31 226.752 1088.78 227.344C1088.26 227.92 1087.62 228.384 1086.89 228.736C1086.17 229.072 1085.39 229.24 1084.56 229.24ZM1084.18 227.8C1084.86 227.8 1085.49 227.664 1086.05 227.392C1086.62 227.104 1087.11 226.728 1087.51 226.264C1087.93 225.784 1088.25 225.248 1088.47 224.656C1088.71 224.048 1088.83 223.424 1088.83 222.784C1088.83 222.128 1088.72 221.496 1088.5 220.888C1088.29 220.28 1087.98 219.744 1087.58 219.28C1087.2 218.8 1086.73 218.424 1086.17 218.152C1085.62 217.864 1085.02 217.72 1084.37 217.72C1083.87 217.72 1083.41 217.808 1082.98 217.984C1082.54 218.144 1082.14 218.368 1081.78 218.656C1081.41 218.944 1081.08 219.28 1080.79 219.664C1080.5 220.032 1080.26 220.424 1080.07 220.84V224.728C1080.14 225.16 1080.3 225.568 1080.58 225.952C1080.86 226.32 1081.2 226.64 1081.58 226.912C1081.98 227.184 1082.41 227.4 1082.86 227.56C1083.32 227.72 1083.76 227.8 1084.18 227.8Z" fill="white"/>
<path d="M168.264 91.012H139.482L127.899 157H106.722L118.305 91.012H89.4056L92.6816 72.76H171.54L168.264 91.012ZM187.246 99.085C195.67 99.085 202.027 100.918 206.317 104.584C209.671 107.47 211.348 111.487 211.348 116.635C211.348 118.351 211.153 120.223 210.763 122.251L208.306 135.94C206.824 144.208 203.353 150.058 197.893 153.49C192.511 156.922 185.296 158.638 176.248 158.638C167.2 158.638 160.57 156.922 156.358 153.49C153.238 150.916 151.678 147.055 151.678 141.907C151.678 140.113 151.873 138.124 152.263 135.94L154.72 122.251C157.45 106.807 168.292 99.085 187.246 99.085ZM190.405 124.591C190.561 123.811 190.639 122.836 190.639 121.666C190.639 120.418 190.132 119.053 189.118 117.571C188.104 116.089 186.31 115.348 183.736 115.348C181.24 115.348 179.134 116.206 177.418 117.922C175.702 119.56 174.61 121.783 174.142 124.591L172.621 133.366C172.465 134.146 172.387 135.16 172.387 136.408C172.387 137.578 172.894 138.865 173.908 140.269C174.922 141.673 176.677 142.375 179.173 142.375C181.747 142.375 183.892 141.517 185.608 139.801C187.324 138.007 188.416 135.862 188.884 133.366L190.405 124.591ZM255.51 132.547H220.527L223.101 117.805H258.084L255.51 132.547ZM321.394 138.982C321.394 141.01 322.408 142.024 324.436 142.024C326.542 142.024 328.297 141.634 329.701 140.854L329.116 154.075C325.372 157.117 321.16 158.638 316.48 158.638C307.9 158.638 303.142 155.518 302.206 149.278C298.306 155.518 292.573 158.638 285.007 158.638C272.215 158.638 265.819 153.139 265.819 142.141C265.819 140.269 266.014 138.202 266.404 135.94L268.861 122.251C270.109 115.231 272.956 109.654 277.402 105.52C281.926 101.308 288.166 99.202 296.122 99.202C301.036 99.202 304.936 100.255 307.822 102.361L313.789 68.197H333.796L321.511 137.578C321.433 138.046 321.394 138.514 321.394 138.982ZM286.762 133.366C286.606 134.068 286.528 135.043 286.528 136.291C286.528 137.539 287.113 138.787 288.283 140.035C289.453 141.205 291.403 141.79 294.133 141.79C296.941 141.79 299.359 140.698 301.387 138.514L304.897 118.858C304.039 116.908 302.011 115.933 298.813 115.933C292.807 115.933 289.297 118.819 288.283 124.591L286.762 133.366ZM373.715 99.085C382.139 99.085 388.496 100.918 392.786 104.584C396.14 107.47 397.817 111.487 397.817 116.635C397.817 118.351 397.622 120.223 397.232 122.251L394.775 135.94C393.293 144.208 389.822 150.058 384.362 153.49C378.98 156.922 371.765 158.638 362.717 158.638C353.669 158.638 347.039 156.922 342.827 153.49C339.707 150.916 338.147 147.055 338.147 141.907C338.147 140.113 338.342 138.124 338.732 135.94L341.189 122.251C343.919 106.807 354.761 99.085 373.715 99.085ZM376.874 124.591C377.03 123.811 377.108 122.836 377.108 121.666C377.108 120.418 376.601 119.053 375.587 117.571C374.573 116.089 372.779 115.348 370.205 115.348C367.709 115.348 365.603 116.206 363.887 117.922C362.171 119.56 361.079 121.783 360.611 124.591L359.09 133.366C358.934 134.146 358.856 135.16 358.856 136.408C358.856 137.578 359.363 138.865 360.377 140.269C361.391 141.673 363.146 142.375 365.642 142.375C368.216 142.375 370.361 141.517 372.077 139.801C373.793 138.007 374.885 135.862 375.353 133.366L376.874 124.591ZM474.181 157L474.883 138.631H455.344L449.611 157H427.264L457.333 72.76H495.943L496.411 157H474.181ZM469.384 93.235L460.141 122.953H475.468L476.755 93.235H469.384ZM548.432 99.202C556.388 99.202 561.887 101.308 564.929 105.52C567.113 108.406 568.205 112.072 568.205 116.518C568.205 118.312 568.01 120.223 567.62 122.251L565.28 135.94C563.954 143.35 561.107 149.005 556.739 152.905C552.371 156.727 546.911 158.638 540.359 158.638C533.807 158.638 529.244 156.883 526.67 153.373L520.352 189.526H500.462L516.14 100.723H534.158L533.573 103.882C537.239 100.762 542.192 99.202 548.432 99.202ZM536.264 141.79C538.448 141.79 540.476 141.088 542.348 139.684C544.22 138.28 545.39 136.174 545.858 133.366L547.379 124.591C547.535 123.811 547.613 122.836 547.613 121.666C547.613 120.496 547.106 119.248 546.092 117.922C545.078 116.596 543.323 115.933 540.827 115.933C536.771 115.933 534.119 116.908 532.871 118.858L529.361 138.514C530.453 140.698 532.754 141.79 536.264 141.79ZM615.844 99.202C623.8 99.202 629.299 101.308 632.341 105.52C634.525 108.406 635.617 112.072 635.617 116.518C635.617 118.312 635.422 120.223 635.032 122.251L632.692 135.94C631.366 143.35 628.519 149.005 624.151 152.905C619.783 156.727 614.323 158.638 607.771 158.638C601.219 158.638 596.656 156.883 594.082 153.373L587.764 189.526H567.874L583.552 100.723H601.57L600.985 103.882C604.651 100.762 609.604 99.202 615.844 99.202ZM603.676 141.79C605.86 141.79 607.888 141.088 609.76 139.684C611.632 138.28 612.802 136.174 613.27 133.366L614.791 124.591C614.947 123.811 615.025 122.836 615.025 121.666C615.025 120.496 614.518 119.248 613.504 117.922C612.49 116.596 610.735 115.933 608.239 115.933C604.183 115.933 601.531 116.908 600.283 118.858L596.773 138.514C597.865 140.698 600.166 141.79 603.676 141.79ZM766.354 100.723C767.446 103.999 767.992 108.367 767.992 113.827C767.992 119.209 767.329 124.396 766.003 129.388C764.677 134.38 762.649 139.138 759.919 143.662C757.267 148.108 753.523 151.735 748.687 154.543C743.929 157.273 738.43 158.638 732.19 158.638C722.83 158.638 716.59 156.025 713.47 150.799C707.854 156.025 701.575 158.638 694.633 158.638C685.273 158.638 678.838 156.649 675.328 152.671C672.988 150.019 671.818 146.08 671.818 140.854C671.818 138.124 672.13 135.082 672.754 131.728L678.253 100.723H698.143L692.644 131.845C692.41 133.015 692.293 134.068 692.293 135.004C692.293 139.45 694.594 141.673 699.196 141.673C702.394 141.673 704.812 140.308 706.45 137.578C708.088 134.77 709.492 129.895 710.662 122.953L714.64 100.723H734.53L729.031 131.845C728.797 133.015 728.68 134.068 728.68 135.004C728.68 139.45 730.981 141.673 735.583 141.673C743.695 141.673 747.751 133.171 747.751 116.167C747.751 112.189 747.439 107.782 746.815 102.946L746.464 100.723H766.354ZM799.312 142.024C801.106 142.024 802.705 141.634 804.109 140.854L803.524 154.075C799.858 157.117 795.685 158.638 791.005 158.638C783.907 158.638 779.305 157 777.199 153.724C775.795 151.54 775.093 149.239 775.093 146.821C775.093 144.325 775.249 142.141 775.561 140.269L782.581 100.723H802.471L795.919 137.578C795.841 138.046 795.802 138.475 795.802 138.865C795.802 140.971 796.972 142.024 799.312 142.024ZM784.921 81.652C784.921 76.66 786.013 73.033 788.197 70.771C790.459 68.431 793.93 67.261 798.61 67.261C805.162 67.261 808.438 70.147 808.438 75.919C808.438 80.833 807.307 84.421 805.045 86.683C802.861 88.945 799.39 90.076 794.632 90.076C788.158 90.076 784.921 87.268 784.921 81.652ZM836.34 158.638C827.292 158.638 820.779 156.61 816.801 152.554C813.837 149.59 812.355 145.612 812.355 140.62C812.355 138.982 812.511 137.227 812.823 135.355L820.779 90.076L842.19 81.184L838.797 100.723H871.089L868.164 117.22H835.872L833.532 130.441C833.22 131.923 833.064 133.249 833.064 134.419C833.064 139.333 835.404 141.79 840.084 141.79C842.58 141.79 844.647 140.737 846.285 138.631C848.001 136.525 849.171 133.717 849.795 130.207H869.217C865.941 149.161 854.982 158.638 836.34 158.638ZM936.238 142.024C938.032 142.024 939.631 141.634 941.035 140.854L940.45 154.075C936.784 157.117 932.611 158.638 927.931 158.638C917.323 158.638 912.019 154.192 912.019 145.3C912.019 143.74 912.175 142.063 912.487 140.269L915.061 125.878C915.295 124.474 915.412 123.07 915.412 121.666C915.412 117.922 913.423 116.05 909.445 116.05C905.545 116.05 902.503 117.376 900.319 120.028L893.767 157H873.877L889.555 68.197H909.445L902.776 105.988C907.066 101.386 912.448 99.085 918.922 99.085C926.8 99.085 931.909 100.84 934.249 104.35C935.887 106.69 936.706 109.303 936.706 112.189C936.706 115.075 936.472 117.727 936.004 120.145L932.845 137.578C932.767 138.046 932.728 138.475 932.728 138.865C932.728 140.971 933.898 142.024 936.238 142.024Z" fill="#EDBC3F"/>
<defs>
<filter id="filter0_f" x="1086.9" y="75" width="124.425" height="82" filterUnits="userSpaceOnUse" color-interpolation-filters="sRGB">
<feFlood flood-opacity="0" result="BackgroundImageFix"/>
<feBlend mode="normal" in="SourceGraphic" in2="BackgroundImageFix" result="shape"/>
<feGaussianBlur stdDeviation="2.5" result="effect1_foregroundBlur"/>
</filter>
<radialGradient id="paint0_radial" cx="0" cy="0" r="1" gradientUnits="userSpaceOnUse" gradientTransform="translate(1148 120) rotate(91.741) scale(164.576 167.518)">
<stop stop-color="#FFD232"/>
<stop offset="0.0001" stop-color="#FFE600"/>
<stop offset="1" stop-color="#EEAB00"/>
</radialGradient>
</defs>
</svg>
